<?xml version="1.0" encoding="UTF-8"?>
<svg xmlns="http://www.w3.org/2000/svg" xmlns:xlink="http://www.w3.org/1999/xlink" width="64pt" height="64pt" viewBox="0 0 64 64" version="1.1">
<g id="surface134748">
<rect x="0" y="0" width="64" height="64" style="fill:rgb(92.54902%,94.117647%,94.509804%);fill-opacity:1;stroke:none;"/>
<path style=" stroke:none;fill-rule:nonzero;fill:rgb(100%,92.156863%,60.784314%);fill-opacity:1;" d="M 16 21 L 16 19 C 16 17.457031 18 17 18 17 C 18 17 21.609375 3 33.03125 3 C 33.03125 3 52 3.109375 52 18.085938 C 52 20.851562 52 23.90625 50.644531 27.6875 C 50.644531 27.6875 50.3125 28.851562 49.878906 30.429688 "/>
<path style=" stroke:none;fill-rule:nonzero;fill:rgb(97.647059%,86.666667%,56.078431%);fill-opacity:1;" d="M 34.648438 4.863281 C 34.3125 6.515625 35.359375 8.15625 37.011719 8.492188 C 38.207031 8.738281 39.546875 9.105469 40.859375 9.648438 C 46.363281 11.9375 47 15.558594 47 18.085938 C 47 18.96875 47 19.832031 46.957031 20.707031 C 46.867188 22.472656 48.238281 23.964844 50.003906 23.984375 C 50.949219 23.996094 51.753906 23.28125 51.847656 22.339844 C 52 20.824219 52 19.421875 52 18.085938 C 52 7.410156 42.363281 4.289062 36.824219 3.375 C 35.816406 3.210938 34.851562 3.859375 34.648438 4.863281 Z M 34.648438 4.863281 "/>
<path style=" stroke:none;fill-rule:nonzero;fill:rgb(100%,92.156863%,60.784314%);fill-opacity:1;" d="M 49 62 L 22 62 L 22 57 L 14 33 L 42 25 L 50 29 L 48 37 C 50.808594 39.808594 49.777344 44.585938 46.054688 45.980469 L 46 46 Z M 49 62 "/>
<path style=" stroke:none;fill-rule:nonzero;fill:rgb(100%,97.254902%,93.333333%);fill-opacity:1;" d="M 25 27 C 25 30.3125 22.3125 33 19 33 C 15.6875 33 13 30.3125 13 27 C 13 23.6875 15.6875 21 19 21 C 22.3125 21 25 23.6875 25 27 Z M 25 27 "/>
<path style=" stroke:none;fill-rule:nonzero;fill:rgb(100%,97.254902%,93.333333%);fill-opacity:1;" d="M 39 28.5 C 39 32.640625 35.640625 36 31.5 36 C 27.359375 36 24 32.640625 24 28.5 C 24 24.359375 27.359375 21 31.5 21 C 35.640625 21 39 24.359375 39 28.5 Z M 39 28.5 "/>
<path style=" stroke:none;fill-rule:nonzero;fill:rgb(55.294118%,42.352941%,62.352941%);fill-opacity:1;" d="M 19.5 26 C 18.671875 26 18 26.671875 18 27.5 C 18 28.328125 18.671875 29 19.5 29 C 20.328125 29 21 28.328125 21 27.5 C 21 26.671875 20.328125 26 19.5 26 Z M 19.5 26 "/>
<path style=" stroke:none;fill-rule:nonzero;fill:rgb(55.294118%,42.352941%,62.352941%);fill-opacity:1;" d="M 15.199219 32.839844 C 13.195312 31.535156 12 29.355469 12 27.007812 C 12 23.144531 15.21875 20 19.175781 20 C 22.207031 20 24.925781 21.875 25.941406 24.664062 L 24.0625 25.347656 C 23.332031 23.34375 21.371094 22 19.175781 22 C 16.320312 22 14 24.246094 14 27.007812 C 14 28.675781 14.855469 30.230469 16.289062 31.160156 Z M 15.199219 32.839844 "/>
<path style=" stroke:none;fill-rule:nonzero;fill:rgb(97.647059%,86.666667%,56.078431%);fill-opacity:1;" d="M 14.789062 37.953125 C 14.789062 37.953125 13.640625 38.914062 12.710938 41.398438 C 12.351562 42.359375 10 44.742188 10 46.886719 C 10 46.886719 12.59375 47.792969 15 51 C 18 55 23.03125 58 27 58 C 34.535156 58 36 49 36 49 L 35.554688 48.015625 C 32.777344 41.914062 26.703125 37.988281 19.996094 37.96875 Z M 14.789062 37.953125 "/>
<path style=" stroke:none;fill-rule:nonzero;fill:rgb(55.294118%,42.352941%,62.352941%);fill-opacity:1;" d="M 31.5 37 C 26.8125 37 23 33.1875 23 28.5 C 23 23.8125 26.8125 20 31.5 20 C 36.1875 20 40 23.8125 40 28.5 C 40 33.1875 36.1875 37 31.5 37 Z M 31.5 22 C 27.914062 22 25 24.914062 25 28.5 C 25 32.085938 27.914062 35 31.5 35 C 35.085938 35 38 32.085938 38 28.5 C 38 24.914062 35.085938 22 31.5 22 Z M 31.5 22 "/>
<path style=" stroke:none;fill-rule:nonzero;fill:rgb(55.294118%,42.352941%,62.352941%);fill-opacity:1;" d="M 32.5 28 C 31.671875 28 31 28.671875 31 29.5 C 31 30.328125 31.671875 31 32.5 31 C 33.328125 31 34 30.328125 34 29.5 C 34 28.671875 33.328125 28 32.5 28 Z M 32.5 28 "/>
<path style=" stroke:none;fill-rule:nonzero;fill:rgb(55.294118%,42.352941%,62.352941%);fill-opacity:1;" d="M 19.484375 52 C 11.40625 52 9.1875 47.503906 9.097656 47.3125 C 9.03125 47.179688 9 47.035156 9 46.886719 C 9 45.101562 10.214844 43.363281 11.101562 42.097656 C 11.382812 41.691406 11.703125 41.230469 11.773438 41.050781 C 12.769531 38.394531 14.011719 37.300781 14.148438 37.183594 C 14.574219 36.828125 15.207031 36.886719 15.558594 37.308594 C 15.910156 37.730469 15.855469 38.355469 15.441406 38.710938 C 15.40625 38.742188 14.445312 39.617188 13.648438 41.75 C 13.488281 42.167969 13.15625 42.644531 12.738281 43.242188 C 12.054688 44.222656 11.136719 45.535156 11.015625 46.644531 C 11.488281 47.382812 13.585938 50 19.484375 50 C 26.410156 50 28.394531 48.808594 28.414062 48.796875 C 28.875 48.507812 29.488281 48.632812 29.789062 49.082031 C 30.089844 49.53125 29.984375 50.132812 29.542969 50.445312 C 29.316406 50.605469 27.117188 52 19.484375 52 Z M 49.882812 31.429688 C 49.792969 31.429688 49.703125 31.417969 49.617188 31.394531 C 49.082031 31.246094 48.769531 30.695312 48.914062 30.164062 C 49.347656 28.582031 49.683594 27.410156 49.683594 27.410156 C 51 23.730469 51 20.863281 51 18.085938 C 51 12.339844 48.035156 8.230469 42.191406 5.875 C 37.679688 4.054688 33.070312 4 33.023438 4 C 22.503906 4 19.003906 17.117188 18.96875 17.25 C 18.875 17.613281 18.585938 17.890625 18.222656 17.976562 C 18.214844 17.976562 17 18.289062 17 19 L 17 21 C 17 21.550781 16.554688 22 16 22 C 15.445312 22 15 21.550781 15 21 L 15 19 C 15 17.472656 16.191406 16.601562 17.1875 16.210938 C 17.542969 15.058594 18.523438 12.265625 20.398438 9.445312 C 23.644531 4.574219 28.011719 2 33.03125 2 C 33.238281 2 53 2.296875 53 18.085938 C 53 20.894531 53 24.078125 51.589844 28.019531 C 51.589844 28.019531 51.265625 29.164062 50.84375 30.691406 C 50.722656 31.136719 50.320312 31.429688 49.882812 31.429688 Z M 49.882812 31.429688 "/>
<path style=" stroke:none;fill-rule:nonzero;fill:rgb(55.294118%,42.352941%,62.352941%);fill-opacity:1;" d="M 47.984375 20.917969 C 47.976562 20.917969 47.96875 20.917969 47.960938 20.917969 L 45.960938 20.867188 C 45.410156 20.855469 44.972656 20.398438 44.984375 19.847656 C 45 19.300781 45.445312 18.871094 45.984375 18.871094 C 45.992188 18.871094 46 18.871094 46.007812 18.871094 L 48.007812 18.917969 C 48.5625 18.929688 48.996094 19.390625 48.984375 19.941406 C 48.972656 20.484375 48.527344 20.917969 47.984375 20.917969 Z M 47.984375 20.917969 "/>
<path style=" stroke:none;fill-rule:nonzero;fill:rgb(55.294118%,42.352941%,62.352941%);fill-opacity:1;" d="M 45.402344 15.839844 C 45.015625 15.839844 44.648438 15.617188 44.484375 15.238281 C 44.265625 14.734375 44.496094 14.144531 45.003906 13.925781 L 46.835938 13.125 C 47.347656 12.902344 47.933594 13.136719 48.152344 13.644531 C 48.375 14.148438 48.140625 14.738281 47.636719 14.960938 L 45.800781 15.757812 C 45.671875 15.8125 45.535156 15.839844 45.402344 15.839844 Z M 45.402344 15.839844 "/>
<path style=" stroke:none;fill-rule:nonzero;fill:rgb(55.294118%,42.352941%,62.352941%);fill-opacity:1;" d="M 42.066406 12.359375 C 41.898438 12.359375 41.726562 12.316406 41.570312 12.222656 C 41.089844 11.949219 40.925781 11.335938 41.203125 10.859375 L 42.203125 9.125 C 42.480469 8.648438 43.09375 8.484375 43.570312 8.761719 C 44.046875 9.035156 44.210938 9.648438 43.933594 10.125 L 42.933594 11.859375 C 42.75 12.179688 42.414062 12.359375 42.066406 12.359375 Z M 42.066406 12.359375 "/>
<path style=" stroke:none;fill-rule:nonzero;fill:rgb(55.294118%,42.352941%,62.352941%);fill-opacity:1;" d="M 37.175781 10.554688 C 37.105469 10.554688 37.03125 10.546875 36.957031 10.53125 C 36.417969 10.410156 36.078125 9.875 36.199219 9.335938 L 36.632812 7.382812 C 36.75 6.84375 37.28125 6.503906 37.824219 6.625 C 38.363281 6.742188 38.703125 7.277344 38.585938 7.816406 L 38.152344 9.769531 C 38.046875 10.234375 37.636719 10.554688 37.175781 10.554688 Z M 37.175781 10.554688 "/>
<path style=" stroke:none;fill-rule:nonzero;fill:rgb(55.294118%,42.352941%,62.352941%);fill-opacity:1;" d="M 49 63 C 48.992188 63 48.984375 63 48.976562 63 L 21.992188 63 C 21.726562 63 21.46875 62.894531 21.28125 62.707031 C 21.097656 62.519531 20.988281 62.265625 20.992188 61.996094 L 21 57.996094 C 21 57.445312 21.449219 57 22 57 C 22 57 22 57 22.003906 57 C 22.554688 57 23 57.449219 23 58.003906 L 22.992188 61 L 47.722656 61 C 46.511719 55.761719 44.996094 45.652344 44.929688 45.1875 C 44.886719 44.898438 44.972656 44.609375 45.160156 44.386719 C 45.351562 44.167969 45.628906 44.039062 45.917969 44.039062 C 48.113281 44.039062 49 42.601562 49 42 C 49 41.097656 48.804688 39 47 39 C 45.566406 39 44.917969 40.398438 44.910156 40.414062 C 44.683594 40.914062 44.089844 41.140625 43.585938 40.910156 C 43.085938 40.683594 42.859375 40.089844 43.089844 39.585938 C 43.136719 39.480469 44.292969 37 47 37 C 49.429688 37 51 38.960938 51 42 C 51 43.484375 49.640625 45.476562 47.066406 45.941406 C 47.539062 49.003906 48.957031 57.957031 49.960938 61.71875 C 49.976562 61.769531 49.984375 61.820312 49.992188 61.871094 C 50.007812 61.988281 50 62.101562 49.976562 62.210938 C 49.945312 62.359375 49.882812 62.492188 49.792969 62.609375 C 49.703125 62.722656 49.59375 62.820312 49.457031 62.890625 C 49.355469 62.941406 49.246094 62.976562 49.128906 62.992188 C 49.085938 62.996094 49.042969 63 49 63 Z M 53 37 C 52.445312 37 52 36.550781 52 36 L 52 30.765625 L 49.867188 34.496094 C 49.644531 34.890625 49.183594 35.085938 48.742188 34.964844 C 48.304688 34.851562 48 34.453125 48 34 L 48 29.765625 L 45.867188 33.496094 C 45.59375 33.976562 44.980469 34.140625 44.503906 33.867188 C 44.023438 33.59375 43.859375 32.984375 44.132812 32.503906 L 48.132812 25.503906 C 48.355469 25.109375 48.816406 24.914062 49.257812 25.035156 C 49.695312 25.148438 50 25.546875 50 26 L 50 30.234375 L 52.132812 26.503906 C 52.355469 26.109375 52.8125 25.914062 53.257812 26.035156 C 53.695312 26.148438 54 26.546875 54 27 L 54 36 C 54 36.550781 53.554688 37 53 37 Z M 53 37 "/>
<path style=" stroke:none;fill-rule:nonzero;fill:rgb(55.294118%,42.352941%,62.352941%);fill-opacity:1;" d="M 26.355469 59 C 19.792969 59 18.117188 56.183594 17.40625 54.878906 C 14.886719 53.691406 14.390625 51.367188 14.324219 50.050781 L 16.324219 49.949219 C 16.402344 51.539062 17.132812 52.625 18.492188 53.171875 L 18.816406 53.300781 L 19.117188 53.839844 C 19.714844 54.941406 20.832031 57 26.355469 57 C 34.871094 57 34.96875 50.476562 34.96875 50.199219 L 34.976562 50.058594 C 35.003906 49.863281 35.554688 45.164062 29.976562 41.96875 C 25.90625 39.628906 19.128906 39.996094 19.058594 39.996094 L 17 40 C 14.496094 40 13 37.585938 13 35.25 C 13 32.90625 14.988281 31 17.433594 31 L 24.621094 31 L 24.621094 33 L 17.433594 33 C 16.089844 33 15 34.007812 15 35.25 C 15 36.574219 15.765625 38 17 38 L 19 38 C 19.242188 37.984375 26.378906 37.59375 30.972656 40.234375 C 37.484375 43.96875 37.046875 49.597656 36.964844 50.28125 C 36.925781 51.175781 36.300781 59 26.355469 59 Z M 26.355469 59 "/>
<path style=" stroke:none;fill-rule:nonzero;fill:rgb(55.294118%,42.352941%,62.352941%);fill-opacity:1;" d="M 48 39 C 47.921875 39 47.839844 38.992188 47.757812 38.96875 C 47.222656 38.835938 46.894531 38.292969 47.03125 37.757812 L 48.03125 33.757812 C 48.164062 33.222656 48.707031 32.894531 49.242188 33.027344 C 49.777344 33.164062 50.105469 33.707031 49.96875 34.242188 L 48.96875 38.242188 C 48.855469 38.695312 48.449219 39 48 39 Z M 48 39 "/>
</g>
</svg>
